<?xml version="1.0" encoding="utf-8"?>
<!-- Generator: Adobe Illustrator 15.0.0, SVG Export Plug-In . SVG Version: 6.00 Build 0)  -->
<!DOCTYPE svg PUBLIC "-//W3C//DTD SVG 1.1//EN" "http://www.w3.org/Graphics/SVG/1.1/DTD/svg11.dtd">
<svg version="1.1" id="Layer_1" xmlns="http://www.w3.org/2000/svg" xmlns:xlink="http://www.w3.org/1999/xlink" x="0px" y="0px"
	 width="30px" height="30px" viewBox="0 0 30 30" enable-background="new 0 0 30 30" xml:space="preserve">
<g>
	<path fill="#FFFFFF" d="M0,27c0,1.657,1.343,3,3,3h24c1.657,0,3-1.343,3-3V3c0-1.657-1.343-3-3-3H3C1.343,0,0,1.343,0,3V27z"/>
</g>
<g id="_x33_80-wix">
	<g>
		<g>
			<path d="M13.213,11.262l-1.442,5.587l-1.199-4.573c-0.324-1.348-0.876-2.044-2.04-2.044c-1.153,0-1.712,0.681-2.04,2.044
				l-1.2,4.573L3.85,11.262C3.618,10.136,2.528,9.65,1.523,9.776l2.762,10.441c0,0,0.911,0.065,1.367-0.167
				c0.599-0.305,0.884-0.541,1.246-1.961c0.323-1.267,1.226-4.987,1.311-5.252c0.2-0.629,0.467-0.582,0.648,0
				c0.083,0.265,0.987,3.985,1.311,5.252c0.362,1.42,0.647,1.656,1.246,1.961c0.456,0.232,1.367,0.167,1.367,0.167l2.762-10.441
				C14.514,9.647,13.444,10.152,13.213,11.262L13.213,11.262z M18.09,11.481c0,0-0.173,0.267-0.566,0.487
				c-0.254,0.142-0.496,0.237-0.758,0.363c-0.637,0.306-0.555,0.587-0.555,1.482v6.404c0,0,0.697,0.088,1.152-0.145
				c0.587-0.301,0.722-0.588,0.727-1.887v-6.329l0,0V11.481L18.09,11.481z M24.973,15.022l3.504-5.211c0,0-1.479-0.251-2.211,0.415
				c-0.561,0.51-1.027,1.245-2.281,3.052c-0.021,0.03-0.264,0.444-0.551,0c-1.233-1.779-1.719-2.54-2.281-3.052
				c-0.732-0.667-2.213-0.415-2.213-0.415l3.504,5.211l-3.493,5.195c0,0,1.54,0.195,2.272-0.472c0.482-0.44,0.739-0.858,2.211-2.979
				c0.287-0.441,0.528-0.031,0.551,0c1.238,1.784,1.651,2.445,2.238,2.979c0.731,0.667,2.244,0.472,2.244,0.472L24.973,15.022
				L24.973,15.022z"/>
		</g>
		<path fill="#FBBD71" d="M18.09,9.765c0,0.549,0.088,1.377-1.207,1.846c-0.4,0.145-0.672,0.407-0.672,0.407
			c0-1.306,0.199-1.778,0.732-2.058C17.354,9.745,18.09,9.765,18.09,9.765z"/>
	</g>
</g>
</svg>
